<?xml version="1.0" encoding="UTF-8"?>
<svg id="Layer_2" xmlns="http://www.w3.org/2000/svg" viewBox="0 0 356.06 615.04">
  <defs>
    <style>
      .cls-1 {
        fill: #398762;
      }

      .cls-1, .cls-2 {
        opacity: .9;
      }

      .cls-1, .cls-3 {
        stroke: #0f3b1d;
        stroke-miterlimit: 10;
      }

      .cls-4 {
        fill: #2b6e4e;
        opacity: .5;
      }

      .cls-2 {
        fill: #231f20;
      }

      .cls-3 {
        fill: none;
      }
    </style>
  </defs>
  <g id="Layer_1-2" data-name="Layer_1">
    <polygon class="cls-1" points=".5 37.02 42.56 64.36 41.46 498.82 .5 534.18 .5 37.02"/>
    <polygon class="cls-4" points=".5 .5 265.67 .5 355.56 33.65 355.56 614.54 102.19 614.54 .5 576.81 .5 534.18 41.46 498.82 42.56 64.36 .5 37.02 .5 .5"/>
    <polygon class="cls-3" points=".5 .5 265.67 .5 355.56 33.65 355.56 614.54 102.19 614.54 .5 576.81 .5 534.18 41.46 498.82 42.56 64.36 .5 37.02 .5 .5"/>
    <polygon class="cls-2" points=".49 64.65 42.52 87.91 42.47 108.93 .49 82.54 .49 64.65"/>
    <polygon class="cls-2" points=".48 105.35 42.52 128.6 42.46 149.62 .48 123.24 .48 105.35"/>
    <polygon class="cls-2" points=".5 148.06 42.53 171.31 42.48 192.33 .5 165.95 .5 148.06"/>
    <polygon class="cls-2" points=".48 192.33 42.52 215.59 42.46 236.6 .48 210.22 .48 192.33"/>
    <polygon class="cls-2" points=".5 235.04 42.53 258.29 42.48 279.31 .5 252.93 .5 235.04"/>
    <polygon class="cls-2" points=".48 279.31 42.52 302.57 42.46 323.59 .48 297.2 .48 279.31"/>
    <polygon class="cls-2" points=".5 322.02 42.53 345.28 42.48 366.29 .5 339.91 .5 322.02"/>
    <polygon class="cls-2" points=".5 366.29 42.53 389.55 42.48 410.57 .5 384.18 .5 366.29"/>
    <polygon class="cls-2" points=".5 409 42.53 432.26 42.48 453.28 .5 426.89 .5 409"/>
    <polygon class="cls-2" points=".48 453.28 42.52 476.53 42.46 497.55 .48 471.16 .48 453.28"/>
  </g>
</svg>