<?xml version="1.0" encoding="UTF-8"?>
<svg id="Layer_2" xmlns="http://www.w3.org/2000/svg" viewBox="0 0 359.64 191.87">
  <defs>
    <style>
      .cls-1 {
        stroke: #143b1f;
      }

      .cls-1, .cls-2, .cls-3 {
        stroke-miterlimit: 10;
      }

      .cls-1, .cls-3 {
        fill: none;
      }

      .cls-4 {
        opacity: .5;
      }

      .cls-4, .cls-2 {
        fill: #2b6e4e;
      }

      .cls-2, .cls-3 {
        stroke: #0f3b1d;
      }
    </style>
  </defs>
  <g id="Layer_1-2" data-name="Layer_1">
    <polygon class="cls-2" points="216.26 187.27 340.08 187.27 353.68 175.87 353.87 175.71 353.87 148.83 353.76 175.62 339.99 187.06 340.08 187.27 353.76 175.62 353.87 148.83 243.18 148.66 216.95 168.19 216.26 187.27"/>
    <polygon class="cls-1" points="349.66 30.84 355.28 30.84 359.14 34.81 359.08 144.71 355.13 148.66 243.18 148.66 216.95 168.19 216.2 188.83 212.85 191.37 .5 191.37 .5 110.27 3.06 107.38 10.19 99.32 10.26 63.39 3.24 55.02 .5 51.76 .5 34.56 3.26 30.91 237 30.24 237.41 110.18 240.31 113.2 340.71 113.2 349.66 102.91 349.66 30.84"/>
    <polygon class="cls-4" points="21.82 90.52 224.48 90.52 226.86 92.24 226.86 133.3 211.95 144.11 21.82 143.38 20.33 142.4 20.33 91.42 21.82 90.52"/>
    <polygon class="cls-3" points="20.33 91.42 20.33 142.4 21.59 143.89 211.95 144.11 226.86 133.3 226.86 92.24 224.48 90.52 21.82 90.52 20.33 91.42"/>
    <polygon class="cls-2" points="3.06 107.38 3.06 91.71 3.23 55.49 3.24 55.02 10.26 63.39 10.19 99.32 3.06 107.38"/>
    <polyline class="cls-3" points=".5 52.15 .5 34.56 3.26 30.91 237 30.24 237 28 237 2.89 239.98 .5 346.64 .5 349.66 3.07 349.66 30.67 349.66 102.91 340.71 113.2 240.31 113.2 237.41 110.18 237.25 30.47"/>
  </g>
</svg>